<svg width="66" height="45" viewBox="0 0 66 45" fill="none" xmlns="http://www.w3.org/2000/svg">
<path d="M4.05306 29.9171V39.2392C4.05306 40.3586 3.14595 41.2657 2.02653 41.2657C0.907114 41.2657 0 40.3586 0 39.2392V29.9171C0 28.7977 0.907114 27.8906 2.02653 27.8906C3.14595 27.8906 4.05306 28.7977 4.05306 29.9171ZM17.9686 18.5958C16.8492 18.5958 15.942 19.5029 15.942 20.6223V39.2386C15.942 40.358 16.8492 41.2651 17.9686 41.2651C19.088 41.2651 19.9951 40.358 19.9951 39.2386V20.6223C19.9951 19.5029 19.088 18.5958 17.9686 18.5958ZM33.9245 9.28158C32.8057 9.28158 31.898 10.1887 31.898 11.3081V39.2395C31.898 40.3589 32.8057 41.266 33.9245 41.266C35.0439 41.266 35.951 40.3589 35.951 39.2395V11.3081C35.951 10.1887 35.0439 9.28158 33.9245 9.28158ZM49.8789 16.4148C50.9983 16.4148 51.9054 15.5077 51.9054 14.3883V2.02653C51.9054 0.907716 50.9983 0 49.8789 0C48.7601 0 47.8524 0.907716 47.8524 2.02653V14.3883C47.8524 15.5077 48.7601 16.4148 49.8789 16.4148ZM61.6328 41.4403C59.4712 43.602 56.5394 44.8167 53.482 44.8167C50.4253 44.8167 47.4935 43.6019 45.3313 41.4403C43.1697 39.2787 41.9556 36.3469 41.9556 33.2896C41.9556 30.2323 43.1697 27.3005 45.3313 25.1389C47.4935 22.9772 50.4253 21.7625 53.482 21.7625C56.5394 21.7625 59.4712 22.9773 61.6328 25.1389C63.8029 27.2963 65.0224 30.23 65.0224 33.2896C65.0224 36.3492 63.8028 39.2829 61.6328 41.4403ZM49.8505 26.7914L59.9831 36.9241C61.0736 35.0248 61.2696 32.7413 60.5187 30.6841C59.7684 28.6268 58.1479 27.0062 56.0905 26.2552C54.0332 25.5049 51.7498 25.7009 49.8505 26.7914L49.8505 26.7914ZM57.1134 39.7872L46.9808 29.6545L46.9814 29.6539C45.9006 31.5538 45.7112 33.8323 46.4633 35.8843C47.2148 37.9362 48.8318 39.5533 50.8837 40.3047C52.9355 41.0568 55.2142 40.8668 57.1141 39.7866L57.1134 39.7872Z" fill="#1987FB"/>
</svg>
