<svg xmlns="http://www.w3.org/2000/svg" viewBox="0 0 150 150"><defs><style>.cls-1{fill:#003f40;}.cls-2{fill:#fd6f5c;}.cls-3{fill:#f7c244;}.cls-4{fill:#27aba7;}.cls-5{fill:#f9f3e5;}.cls-6{fill:#0a726a;}.cls-7{fill:#075955;}.cls-8{fill:#e85646;}.cls-9{fill:#fff;}.cls-10{fill:#ddd;}</style></defs><g id="Layer_2" data-name="Layer 2"><g id="Layer_1-2" data-name="Layer 1"><circle class="cls-1" cx="75" cy="75" r="75"/><circle class="cls-2" cx="66.06" cy="13.35" r="1.47"/><circle class="cls-3" cx="40.26" cy="70.55" r="2.21"/><path class="cls-4" d="M126.29,26.86h0a3.59,3.59,0,0,0,1.84,2.05h0a3.6,3.6,0,0,0-1.84,2h0a3.65,3.65,0,0,0-1.85-2h0a3.64,3.64,0,0,0,1.85-2.05Z"/><path class="cls-4" d="M12.81,56.12h0a3.62,3.62,0,0,0,1.84,2.05h0a3.6,3.6,0,0,0-1.84,2h0a3.62,3.62,0,0,0-1.85-2h0a3.64,3.64,0,0,0,1.85-2.05Z"/><path class="cls-4" d="M144.48,86.73h0a2.37,2.37,0,0,0,1.22,1.34h0a2.43,2.43,0,0,0-1.22,1.35h0a2.37,2.37,0,0,0-1.21-1.35h0a2.33,2.33,0,0,0,1.21-1.34Z"/><path class="cls-4" d="M23.7,94.29h0a2.39,2.39,0,0,0,1.22,1.35h0A2.39,2.39,0,0,0,23.7,97h0a2.38,2.38,0,0,0-1.21-1.35h0a2.38,2.38,0,0,0,1.21-1.35Z"/><path class="cls-4" d="M137.53,95.3h0a2.39,2.39,0,0,0,1.21,1.34h0A2.38,2.38,0,0,0,137.53,98h0a2.39,2.39,0,0,0-1.22-1.35h0a2.41,2.41,0,0,0,1.22-1.34Z"/><path class="cls-2" d="M25.44,131.29a75,75,0,0,0,118.81-27.45A91,91,0,0,0,25.44,131.29Z"/><rect class="cls-5" x="119.49" y="73.88" width="2.1" height="15.31" rx="1" transform="translate(-11.48 20.31) rotate(-9.19)"/><path d="M111.17,93.1h5.65a0,0,0,0,1,0,0v6.53a1.95,1.95,0,0,1-1.95,1.95h-1.76a1.95,1.95,0,0,1-1.95-1.95V93.1A0,0,0,0,1,111.17,93.1Z" transform="translate(-29.7 54.66) rotate(-23.95)"/><rect x="117.89" y="91.69" width="1.06" height="6.01" rx="0.53" transform="translate(-28.24 56.23) rotate(-23.95)"/><rect x="121.07" y="93.45" width="1.06" height="6.01" rx="0.53" transform="translate(160.38 -53.83) rotate(66.05)"/><path class="cls-5" d="M116.6,76.78a1.85,1.85,0,0,0,1.81,1.33,20.54,20.54,0,0,0,5.61-.86c1.82-.58-.15-16-5.25-14.72C116.09,63.2,114.36,69,116.6,76.78Z"/><path class="cls-2" d="M115.54,77.14a1.84,1.84,0,0,0,1.81,1.32A20.54,20.54,0,0,0,123,77.6c1.82-.58-.15-16-5.25-14.71C115,63.56,113.3,69.31,115.54,77.14Z"/><ellipse class="cls-6" cx="112.04" cy="92.38" rx="11.51" ry="3" transform="translate(-26.48 48.8) rotate(-22.04)"/><ellipse class="cls-7" cx="120.88" cy="112.52" rx="7.31" ry="1.91" transform="translate(-33.39 53.59) rotate(-22.04)"/><rect x="116.12" y="95.83" width="2.47" height="18.04" rx="1.18" transform="translate(-32.46 56.68) rotate(-23.95)"/><path class="cls-8" d="M81.42,117.24a66.6,66.6,0,0,0-12.31,2.2c-5.42,1.51-12.65,3.87-13,5.81-.56,3.11,10.63-.45,10.39,2s-6.92,7.16,4.74,6.67,12-7.71,15.58-8.55,18.08.26,16.55-3.45C102,118.6,96.16,116.05,81.42,117.24Z"/><ellipse class="cls-8" cx="110.14" cy="127.43" rx="2.06" ry="4.46" transform="translate(-21.15 232.95) rotate(-87.95)"/><ellipse class="cls-8" cx="118.53" cy="127.63" rx="1.37" ry="7.06" transform="translate(-13.25 241.52) rotate(-87.95)"/><path class="cls-7" d="M109.59,82l6.81-2.77A5.83,5.83,0,0,0,120,74.41l2.25-22.29a5.83,5.83,0,0,0-4.16-6.18l-12.39-3.63Z"/><path class="cls-6" d="M100.57,40.8l15.14,4.45a3.57,3.57,0,0,1,2.53,3.84l-3.39,28.79a3.56,3.56,0,0,1-4.59,3L99.75,77.6Z"/><polygon class="cls-7" points="82.02 69.25 85.13 67.39 78.74 60.59 82.02 69.25"/><polygon class="cls-5" points="84.49 49.81 78.74 60.59 85.02 68.72 91.03 57.76 84.49 49.81"/><path class="cls-7" d="M84.49,49.81l-5.6,10.86v-.18l6.31,8.1-.35,0,3-5.47c1-1.82,2-3.65,3-5.46v.17Zm0,0L87.8,53.7l3.35,4,.06.07,0,.1c-1,1.83-2,3.66-3,5.49l-3,5.49-.16.28-.19-.25-6.25-8.16-.07-.08,0-.1Z"/><polygon class="cls-5" points="64.79 77.73 66.83 88.33 74.51 88.4 96.36 85.86 94.29 69.52 64.79 77.73"/><path class="cls-7" d="M64.79,77.73l2.13,10.58-.09-.08,7.68,0h0c7.28-.89,14.57-1.73,21.85-2.6l-.18.23-2-16.34.23.16-7.35,2-7.37,2Zm0,0,14.68-4.21,7.38-2.1,7.39-2.09.21,0,0,.21,2.09,16.34,0,.21-.2,0c-7.29.83-14.57,1.68-21.86,2.48h0l-7.69-.11h-.08v-.08Z"/><polygon class="cls-7" points="114.35 65.54 113.81 70.19 104.11 64.48 114.35 65.54"/><path class="cls-5" d="M77.07,90.45l18-15.9h14.49l1.28,3a8.07,8.07,0,0,1-3.72,10.35l-18,9.28Z"/><path class="cls-7" d="M77.07,90.45,95,74.42l0,0h.06l14.49,0h.13l.06.12.88,2a16.12,16.12,0,0,1,.8,2.11,11.07,11.07,0,0,1,.22,1.12,8.78,8.78,0,0,1,0,1.15,8.6,8.6,0,0,1-.09,1.13,10.56,10.56,0,0,1-.27,1.11,7.68,7.68,0,0,1-1,2.06,8.65,8.65,0,0,1-.67.92c-.27.27-.52.56-.81.8a7.51,7.51,0,0,1-.91.69c-.32.2-.66.4-1,.57l-2,1-7.93,4.06-8,4-.06,0,0,0Zm0,0,12.07,6.61H89l7.91-4.12,7.91-4.1,2-1c.33-.17.64-.35,1-.54a9,9,0,0,0,.86-.67,7.79,7.79,0,0,0,.76-.76,9.52,9.52,0,0,0,.65-.88,7.84,7.84,0,0,0,.53-.94c.13-.34.28-.67.38-1a9.43,9.43,0,0,0,.25-1.05,8.44,8.44,0,0,0,0-2.17,7.94,7.94,0,0,0-.21-1.06,12.79,12.79,0,0,0-.77-2l-.87-2.05.18.12-14.49,0,.12,0Z"/><polygon class="cls-5" points="101.1 43.8 112.76 46.63 109.58 74.55 90.85 77.73 87.32 71.72 84.49 49.81 89.44 45.92 101.1 43.8"/><path class="cls-7" d="M101.1,43.81l11.68,2.73.08,0v.08l-3.09,27.93,0,.13-.13,0-9.36,1.62c-3.12.54-6.24,1.06-9.36,1.58l-.14,0-.07-.11-3.51-6,0,0v0L84.38,49.83v-.07l0,0,5-3.87h0Zm0,0L89.46,46l0,0-4.93,3.9,0-.1L87.5,71.7l0-.07,3.55,6-.2-.09c3.12-.54,6.24-1.09,9.36-1.6l9.37-1.57-.14.16,3.26-27.91.07.1Z"/><path class="cls-5" d="M72.77,130.69l15-2.61a3.54,3.54,0,0,0,2.92-3.66l-.37-7.35a1.22,1.22,0,0,0-1.43-1.39L76.72,111l-.19,11.31-3.65,2.65A4.63,4.63,0,0,0,71,129.48h0A1.49,1.49,0,0,0,72.77,130.69Z"/><path class="cls-7" d="M72.77,130.67l3.41-.63,3.39-.66c1.14-.23,2.27-.44,3.4-.65l3.41-.6c.56-.1,1.16-.18,1.69-.29a3.45,3.45,0,0,0,1.44-.79,3.51,3.51,0,0,0,.91-1.39,4.24,4.24,0,0,0,.17-1.67c-.1-2.31-.21-4.61-.36-6.91h0a1.11,1.11,0,0,0-1.32-1.26h-.07l-6.1-2.3-6.1-2.33.3-.2-.2,11.31v.11l-.09.06-2.46,1.73L73,125a4.62,4.62,0,0,0-1,1,4.54,4.54,0,0,0-.89,2.77,4.65,4.65,0,0,0,.08.74,1.42,1.42,0,0,0,.34.64A1.47,1.47,0,0,0,72.77,130.67Zm0,0a1.53,1.53,0,0,1-1.4-.46,1.49,1.49,0,0,1-.37-.66,5.07,5.07,0,0,1-.09-.76,4.71,4.71,0,0,1,.81-2.9,4.89,4.89,0,0,1,1.06-1.12l1.2-.91,2.42-1.8-.09.17L76.5,111v-.32l.3.12,6.07,2.39,6.06,2.42h-.07a1.32,1.32,0,0,1,1.55,1.52v0c.09,2.3.2,4.61.34,6.91a6.42,6.42,0,0,1,0,.88,3.7,3.7,0,0,1-.16.87,3.66,3.66,0,0,1-.92,1.52,3.76,3.76,0,0,1-1.54.91c-.3.08-.58.13-.86.18l-.85.15c-1.14.21-2.27.41-3.41.59l-3.42.54-3.43.52Z"/><path class="cls-5" d="M77.5,129.58l-.41-2.23-3.35.62a2.27,2.27,0,0,0-1.82,2.65h0"/><path class="cls-7" d="M77.5,129.58c-.11-.36-.2-.73-.3-1.1s-.19-.73-.27-1.1l.19.13q-.86.19-1.71.36l-1.71.31a2.16,2.16,0,0,0-1.32.85,2.36,2.36,0,0,0-.46,1.59,2.25,2.25,0,0,1,.22-1.75,2.37,2.37,0,0,1,1.48-1.08c.58-.12,1.14-.23,1.72-.33s1.14-.19,1.72-.27l.17,0,0,.16.15,1.12C77.43,128.82,77.48,129.2,77.5,129.58Z"/><path class="cls-7" d="M77.35,127.53c.93-.26,1.87-.48,2.81-.69s1.87-.39,2.82-.57c.46-.09,1-.16,1.39-.26a3.48,3.48,0,0,0,1.21-.62,3.29,3.29,0,0,0,.86-1.06,8.27,8.27,0,0,0,.47-1.35,5.94,5.94,0,0,1-.28,1.43,3.55,3.55,0,0,1-.84,1.23,3.3,3.3,0,0,1-1.31.75,7.27,7.27,0,0,1-.72.16l-.71.13c-.94.17-1.88.34-2.84.48S78.31,127.44,77.35,127.53Z"/><path class="cls-7" d="M83.18,123.67a5.64,5.64,0,0,0-1.51-.85,8.52,8.52,0,0,0-1.65-.43l-.43-.07-.43,0a8.46,8.46,0,0,0-.87-.05h-.87c-.3,0-.59,0-.89,0,.28-.09.57-.15.86-.23s.59-.1.89-.13a7.24,7.24,0,0,1,1.8.06,5.83,5.83,0,0,1,1.73.55A3.66,3.66,0,0,1,83.18,123.67Z"/><path class="cls-7" d="M81.75,122.55a8.55,8.55,0,0,1,.35-2,8.83,8.83,0,0,1,.77-1.89,8.91,8.91,0,0,1-.36,2A8.79,8.79,0,0,1,81.75,122.55Z"/><path class="cls-7" d="M79,120.29a11,11,0,0,1,2.2-.62,10.16,10.16,0,0,1,2.27-.21,10.68,10.68,0,0,1-2.19.62A11.52,11.52,0,0,1,79,120.29Z"/><path class="cls-5" d="M86.28,49.89h0a11.87,11.87,0,0,0,16.34-2.77l.18-.25-.88-5.67L85.33,43.78Z"/><path class="cls-7" d="M86.3,49.89a12.9,12.9,0,0,0,4.26,1.7,12.11,12.11,0,0,0,4.57,0A12.45,12.45,0,0,0,99.39,50a11.85,11.85,0,0,0,1.84-1.39,14.13,14.13,0,0,0,1.52-1.75v.05q-.45-2.84-.95-5.66l.15.11c-2.76.49-5.52.93-8.28,1.38l-4.15.64c-1.38.21-2.77.39-4.16.6l.14-.2.42,3.07Zm0,0-.56-3-.54-3,0-.17.17,0,4.14-.69,4.15-.65c2.77-.41,5.53-.83,8.31-1.2l.13,0,0,.13q.38,2.85.82,5.68v0l0,0a13.1,13.1,0,0,1-3.31,3.29A11.41,11.41,0,0,1,95.2,52a11.8,11.8,0,0,1-4.7-.11A11.13,11.13,0,0,1,86.26,49.9Z"/><path class="cls-5" d="M80.57,39.24c1.24,8,7,11.15,13.31,10.16s10.91-5.26,9.59-13.73a11.59,11.59,0,1,0-22.9,3.57Z"/><path class="cls-7" d="M80.57,39.24A15.93,15.93,0,0,0,82,43.65a10.66,10.66,0,0,0,2.87,3.59,10.15,10.15,0,0,0,4.14,2,13.11,13.11,0,0,0,4.59.14A14.59,14.59,0,0,0,97.94,48a9.57,9.57,0,0,0,5.32-7,14.3,14.3,0,0,0,.09-4.57,11.39,11.39,0,0,0-4.16-7.86,11.5,11.5,0,0,0-16.38,1.89,11.47,11.47,0,0,0-2.24,8.76Zm0,0a11.79,11.79,0,0,1,.19-4.62,11.58,11.58,0,0,1,2-4.17,11.68,11.68,0,0,1,16.66-2.14,11.87,11.87,0,0,1,3,3.61,12,12,0,0,1,1.35,4.49,14.42,14.42,0,0,1-.13,4.68,10.19,10.19,0,0,1-1.9,4.29,10.08,10.08,0,0,1-3.68,2.89,14.35,14.35,0,0,1-4.48,1.27,13,13,0,0,1-4.65-.21,10.55,10.55,0,0,1-4.15-2,10.72,10.72,0,0,1-2.85-3.63A15.62,15.62,0,0,1,80.57,39.24Z"/><path class="cls-6" d="M84,46.58A12.14,12.14,0,0,1,81.63,43a15.5,15.5,0,0,1-1.06-3.76,11.55,11.55,0,0,1,.28-4.88A10.5,10.5,0,0,1,89.3,31c7.69.3,10.28,7.23,10.28,7.23l.16,1.55c.16,1.54-1.56,6.1-6.77,7.51A12.92,12.92,0,0,1,84,46.58Z"/><path class="cls-7" d="M98.78,45.52a12.18,12.18,0,0,1-3.2,2.3A11.37,11.37,0,0,1,91.79,49a11.12,11.12,0,0,1-2,0,10.91,10.91,0,0,1-2-.36A12.19,12.19,0,0,1,86,47.93a13,13,0,0,1-1.67-1,16.83,16.83,0,0,0,1.76.86,10.73,10.73,0,0,0,1.84.61,10.83,10.83,0,0,0,3.82.22,13.07,13.07,0,0,0,3.71-1,14.83,14.83,0,0,0,1.72-.9A14.41,14.41,0,0,0,98.78,45.52Z"/><ellipse class="cls-5" cx="99.9" cy="39.95" rx="3.05" ry="1.89" transform="translate(53.41 136.98) rotate(-86.19)"/><path class="cls-7" d="M98,39.82a4.2,4.2,0,0,0,.31,1.92,2.56,2.56,0,0,0,.55.78,1.35,1.35,0,0,0,.83.36,1.65,1.65,0,0,0,1.38-1,4.43,4.43,0,0,0,.49-1.79,4.59,4.59,0,0,0-.25-1.84,2.31,2.31,0,0,0-.46-.79,1.17,1.17,0,0,0-1.64-.17,2.3,2.3,0,0,0-.64.71A4,4,0,0,0,98,39.82Zm0,0a4.75,4.75,0,0,1,.51-1.88,2.61,2.61,0,0,1,.62-.78,1.5,1.5,0,0,1,1-.36,1.62,1.62,0,0,1,1,.42,2.57,2.57,0,0,1,.6.86,4.46,4.46,0,0,1,.33,2,4.32,4.32,0,0,1-.6,1.94,2.46,2.46,0,0,1-.7.77,1.51,1.51,0,0,1-1,.29,1.48,1.48,0,0,1-.91-.48,2.54,2.54,0,0,1-.51-.85A4.59,4.59,0,0,1,98,39.82Z"/><path class="cls-7" d="M100.08,37.78a3.8,3.8,0,0,0-.83,2,5.77,5.77,0,0,0,0,1.1l.06.57a4.89,4.89,0,0,1,.08.57c-.1-.16-.19-.34-.28-.52a5.4,5.4,0,0,1-.18-.57,3.43,3.43,0,0,1-.09-1.2,2.9,2.9,0,0,1,.38-1.15A2.11,2.11,0,0,1,100.08,37.78Z"/><circle class="cls-5" cx="93.64" cy="36.46" r="2.64"/><circle class="cls-5" cx="90.55" cy="39.98" r="1.32"/><path class="cls-7" d="M92,77.6c-.12-2.15-.2-4.31-.27-6.46s-.09-4.31-.14-6.46,0-4.31,0-6.46V55c0-1.08,0-2.16,0-3.23.06,1.07.1,2.15.15,3.22l.11,3.23c.07,2.16.1,4.31.15,6.46s0,4.31,0,6.47S92,75.44,92,77.6Z"/><polygon class="cls-5" points="66.49 67.04 78.74 60.59 83.43 69.6 68.59 74.19 66.49 67.04"/><path class="cls-7" d="M66.49,67l6-3.3,6.13-3.31.16-.08.08.16,4.72,9,.12.23-.25.07-7.42,2.27c-2.48.77-5,1.49-7.44,2.24l-.12,0,0-.11C67.79,71.81,67.14,69.4,66.49,67Zm0,0c.75,2.41,1.5,4.77,2.22,7.12l-.15-.08c2.46-.78,4.92-1.59,7.4-2.36l7.41-2.32-.12.3-4.67-9,.25.08L72.7,63.89Z"/><path class="cls-5" d="M110.29,46.28h0a5.65,5.65,0,0,1,5.65,5.65V66.07a0,0,0,0,1,0,0H104.63a0,0,0,0,1,0,0V51.93a5.65,5.65,0,0,1,5.65-5.65Z" transform="translate(8.13 -13.71) rotate(7.38)"/><path class="cls-7" d="M114.62,66.71c-3.69-.43-7.45-.85-11.23-1.32h-.13v-.14q.69-5.71,1.43-11.42c.12-1,.22-1.89.37-2.86a6,6,0,0,1,.43-1.42,5.85,5.85,0,0,1,3.16-3,6,6,0,0,1,2.93-.36,5.85,5.85,0,0,1,5,4.81,6.11,6.11,0,0,1,0,1.48c-.11,1-.26,1.92-.38,2.88Zm0,0L116,55.26c.11-.94.24-1.89.33-2.83a5.89,5.89,0,0,0-.06-1.39,6.15,6.15,0,0,0-.42-1.32,5.64,5.64,0,0,0-1.73-2.14,5.47,5.47,0,0,0-5.28-.67,5.53,5.53,0,0,0-2.93,2.8,5.61,5.61,0,0,0-.41,1.32c-.15.93-.26,1.9-.39,2.84-.5,3.81-1,7.61-1.53,11.41l-.12-.16C107.13,65.63,110.84,66.18,114.62,66.71Z"/><path class="cls-5" d="M93.76,73.53,95.7,77.4a2.07,2.07,0,0,0,2.76.93l15.35-7.52s-3.66-9.88-12.8-4.39l-6.56,4.47A2.08,2.08,0,0,0,93.76,73.53Z"/><path class="cls-7" d="M93.76,73.53l1.39,2.75c.24.45.45.93.72,1.36a2.08,2.08,0,0,0,1.24.82,2,2,0,0,0,1.46-.24l1.38-.69,2.75-1.39,5.5-2.78,5.52-2.74-.11.27a10.6,10.6,0,0,0-4-5,6.61,6.61,0,0,0-3.08-.95,8.34,8.34,0,0,0-3.23.53,11.9,11.9,0,0,0-1.51.66l-.73.4-.7.46-2.78,1.85L94.77,70.7a3.58,3.58,0,0,0-.66.5,2.28,2.28,0,0,0-.44.71A2.07,2.07,0,0,0,93.76,73.53Zm0,0a2.1,2.1,0,0,1-.1-1.63,2,2,0,0,1,.43-.71,3.69,3.69,0,0,1,.66-.52l2.75-1.9,2.74-1.92.69-.48.72-.42a12.47,12.47,0,0,1,1.53-.71,8.2,8.2,0,0,1,3.32-.62,6.69,6.69,0,0,1,3.26.93,9.16,9.16,0,0,1,2.54,2.26A11.6,11.6,0,0,1,114,70.74l.07.18-.17.09-5.55,2.67-5.57,2.64L100,77.64l-1.39.66a2.18,2.18,0,0,1-1.52.22,2.11,2.11,0,0,1-1.26-.86c-.27-.44-.47-.91-.7-1.37Z"/><path class="cls-5" d="M88.37,91.52l0,.19c-.26,1.25-2,1.93-3.94,1.52s-3.24-1.75-3-3a1.38,1.38,0,0,1,.15-.4L78.19,89a1.72,1.72,0,0,0-2.14,1.56L74.51,113a1.73,1.73,0,0,0,1.17,1.75L89,119.25a1.73,1.73,0,0,0,2.28-1.46l2.36-23.45a1.73,1.73,0,0,0-1.3-1.85Z"/><path class="cls-7" d="M88.37,91.52a1.69,1.69,0,0,1-.55,1.08,2.87,2.87,0,0,1-1.08.6,4.88,4.88,0,0,1-2.46,0,4.64,4.64,0,0,1-2.2-1.13,2.51,2.51,0,0,1-.69-1.06,1.63,1.63,0,0,1,.11-1.26l0,.13-2.38-.57c-.39-.09-.81-.21-1.18-.28a1.6,1.6,0,0,0-1.75,1.15,7.4,7.4,0,0,0-.11,1.19L76,93.87l-.63,9.79L75,108.55,74.85,111l-.08,1.22,0,.61a2,2,0,0,0,0,.56,1.51,1.51,0,0,0,.56.9,1.4,1.4,0,0,0,.48.26l.58.19,2.32.79,4.64,1.59L88,118.71c.38.12.78.27,1.15.38a1.52,1.52,0,0,0,1.07-.08,1.5,1.5,0,0,0,.75-.76,1.8,1.8,0,0,0,.14-.53l.06-.61,1-9.76,1-9.75.27-2.44.07-.61a2.41,2.41,0,0,0,0-.6,1.72,1.72,0,0,0-.53-1,1.91,1.91,0,0,0-.51-.32,4.91,4.91,0,0,0-.58-.16l-1.18-.31Zm0,0,2.38.56,1.19.29a4.08,4.08,0,0,1,.6.16,1.64,1.64,0,0,1,.54.32,1.78,1.78,0,0,1,.58,1.09,2.56,2.56,0,0,1,0,.62l-.05.62-.22,2.44-.93,9.76-1,9.77-.06.61a2.15,2.15,0,0,1-.17.65,1.89,1.89,0,0,1-2.26,1c-.41-.12-.78-.26-1.17-.39l-4.65-1.57-4.65-1.57-2.32-.8-.58-.2a1.84,1.84,0,0,1-.6-.32,1.93,1.93,0,0,1-.7-1.14,2.47,2.47,0,0,1,0-.66l.05-.62.08-1.22.17-2.45.35-4.89.7-9.78.18-2.45.05-.61a2.34,2.34,0,0,1,.09-.63,1.8,1.8,0,0,1,.78-1A1.83,1.83,0,0,1,78,88.85c.42.08.8.2,1.2.29l2.38.61.12,0-.06.1A1.44,1.44,0,0,0,81.55,91a2.41,2.41,0,0,0,.62,1,4.56,4.56,0,0,0,2.13,1.14,4.77,4.77,0,0,0,2.43,0,2.68,2.68,0,0,0,1.08-.57A1.61,1.61,0,0,0,88.37,91.52Z"/><path class="cls-5" d="M41.36,113.89l14.23,5.39A3.52,3.52,0,0,0,60,117.63l3.43-6.51a1.23,1.23,0,0,0-.53-1.93L54.81,98.93l-5.93,9.63-4.49.42a4.64,4.64,0,0,0-3.91,3h0A1.5,1.5,0,0,0,41.36,113.89Z"/><path class="cls-7" d="M41.37,113.87l3.25,1.2,3.26,1.16c1.09.38,2.17.77,3.25,1.18s2.17.8,3.24,1.22c.54.2,1.09.43,1.61.6a3.37,3.37,0,0,0,1.64.06,3.61,3.61,0,0,0,1.48-.73,4.21,4.21,0,0,0,1-1.35c1.1-2,2.17-4.08,3.22-6.13h0a1.12,1.12,0,0,0,.2-1,1.1,1.1,0,0,0-.7-.74h0l0,0-4.09-5.09-4-5.11.36,0-5.94,9.62-.05.1H48.9l-3,.24-1.51.11a4.75,4.75,0,0,0-1.42.34,4.59,4.59,0,0,0-2.18,1.93,5.71,5.71,0,0,0-.3.67,1.4,1.4,0,0,0,0,.73A1.48,1.48,0,0,0,41.37,113.87Zm0,0a1.54,1.54,0,0,1-1-1.11,1.51,1.51,0,0,1,0-.76,6.14,6.14,0,0,1,.3-.7,4.78,4.78,0,0,1,2.18-2.08,4.66,4.66,0,0,1,1.48-.42l1.5-.17,3-.32-.16.1,5.92-9.63.17-.27.19.24L59,104l4,5.17-.06,0a1.31,1.31,0,0,1,.82.91,1.34,1.34,0,0,1-.26,1.19v0q-1.65,3-3.23,6.12a6.52,6.52,0,0,1-.43.77,3.37,3.37,0,0,1-.58.67,3.58,3.58,0,0,1-1.56.83,3.74,3.74,0,0,1-1.79,0,8.06,8.06,0,0,1-.83-.28l-.81-.3c-1.09-.41-2.17-.81-3.24-1.24s-2.15-.84-3.22-1.27l-3.21-1.3Z"/><path class="cls-5" d="M46,115.34l.78-2.13L43.58,112a2.28,2.28,0,0,0-2.92,1.35h0"/><path class="cls-7" d="M46,115.34c.08-.37.19-.73.29-1.1s.22-.72.34-1.08l.09.2c-.55-.17-1.1-.36-1.65-.56s-1.1-.4-1.63-.59a2.18,2.18,0,0,0-1.57,0,2.35,2.35,0,0,0-1.21,1.14A2.22,2.22,0,0,1,41.75,112a2.33,2.33,0,0,1,1.81-.18c.57.19,1.11.39,1.65.6s1.09.42,1.62.64l.16.06-.06.15c-.14.35-.29.7-.45,1S46.17,115,46,115.34Z"/><path class="cls-7" d="M46.91,113.5c.93.25,1.85.54,2.76.84s1.82.62,2.72,1c.45.16.91.36,1.34.48a3.36,3.36,0,0,0,1.34.09,3.31,3.31,0,0,0,1.29-.48,7.19,7.19,0,0,0,1.09-.92,5.88,5.88,0,0,1-1,1.09,3.49,3.49,0,0,1-1.35.63,3.45,3.45,0,0,1-1.5,0,6.57,6.57,0,0,1-.71-.23l-.67-.25c-.9-.33-1.8-.67-2.69-1S47.78,113.92,46.91,113.5Z"/><path class="cls-7" d="M53.89,113.16a5.43,5.43,0,0,0-.86-1.5,7.76,7.76,0,0,0-1.21-1.22l-.33-.28-.35-.25c-.23-.18-.49-.31-.72-.48l-.76-.44c-.26-.14-.52-.27-.78-.43.29.07.57.16.86.24s.56.21.83.34a7.54,7.54,0,0,1,1.52,1,5.82,5.82,0,0,1,1.21,1.36A3.58,3.58,0,0,1,53.89,113.16Z"/><path class="cls-7" d="M53.23,111.46a9.95,9.95,0,0,1,3-2.78,8.51,8.51,0,0,1-1.33,1.54A8.92,8.92,0,0,1,53.23,111.46Z"/><path class="cls-7" d="M52,108.12a11.08,11.08,0,0,1,2.21.59,10.22,10.22,0,0,1,2.06,1A12.49,12.49,0,0,1,52,108.12Z"/><polygon class="cls-2" points="93.86 75.43 80.78 82.5 66.49 77.73 77.6 71.19 93.86 75.43"/><polygon class="cls-5" points="66.49 77.73 80.78 82.5 78.31 62.36 62.41 61.65 66.49 77.73"/><polygon class="cls-1" points="78.31 62.36 79.02 62.71 81.39 82.17 80.78 82.5 78.31 62.36"/><polygon class="cls-1" points="66.49 77.73 66.49 78.49 81.14 83.56 93.86 76.02 93.86 75.43 80.78 82.5 66.49 77.73"/><path class="cls-5" d="M73,84.71l0,.06c-1,1-2.92.57-4.37-.88s-1.84-3.4-.88-4.37a2,2,0,0,1,.42-.3l-2-2.29a1.4,1.4,0,0,0-2.28.27L51.77,99.77a1.4,1.4,0,0,0,.26,1.66l10.24,10A1.4,1.4,0,0,0,64.5,111L75.58,88.91a1.38,1.38,0,0,0-.2-1.55Z"/><path class="cls-7" d="M73,84.71a1.78,1.78,0,0,1-1.14.58,3,3,0,0,1-1.29-.13,5,5,0,0,1-2.18-1.4,4.72,4.72,0,0,1-1.23-2.28,2.72,2.72,0,0,1,.06-1.33,1.84,1.84,0,0,1,.86-1l0,.15-1.67-1.86c-.14-.15-.28-.32-.42-.46a1.22,1.22,0,0,0-.47-.3,1.29,1.29,0,0,0-1.1.11,1.27,1.27,0,0,0-.4.4c-.1.16-.2.36-.3.54l-.58,1.1L62,81l-4.68,8.84-4.7,8.82L52,99.78a1.24,1.24,0,0,0-.12,1,1.31,1.31,0,0,0,.28.45l.45.43.9.87,3.57,3.49,3.58,3.5,1.78,1.73a1.21,1.21,0,0,0,1,.3,1.19,1.19,0,0,0,.85-.61l4.52-8.91,4.53-8.91c.75-1.48,1.54-3,2.26-4.45a1.32,1.32,0,0,0-.13-1.16c-.24-.33-.54-.63-.8-1Zm0,0,1.67,1.85c.28.32.58.61.84,1a1.44,1.44,0,0,1,.16,1.23c-.71,1.52-1.46,3-2.19,4.5l-4.43,9-4.45,9a1.61,1.61,0,0,1-1.12.79,1.58,1.58,0,0,1-1.32-.38l-1.8-1.75-3.59-3.48-3.59-3.48-.89-.87-.45-.44a1.65,1.65,0,0,1-.38-.6,1.64,1.64,0,0,1,.15-1.37l.59-1.1L57,89.68l4.75-8.8,1.19-2.2.59-1.1c.11-.18.19-.36.31-.55a1.57,1.57,0,0,1,.49-.47,1.55,1.55,0,0,1,1.31-.13,1.61,1.61,0,0,1,.56.37l.42.47,1.64,1.88.08.1-.1,0a1.67,1.67,0,0,0-.8.91,2.59,2.59,0,0,0-.07,1.24,4.55,4.55,0,0,0,1.16,2.25,5,5,0,0,0,2.13,1.42,2.87,2.87,0,0,0,1.27.14A1.79,1.79,0,0,0,73,84.71Z"/><path class="cls-7" d="M56.4,105.82l2.78-5.75L62,94.35,67.7,82.94l0-.08.08,0c1-.33,2-.69,3-1s2-.64,3-.91c-1,.43-2,.82-3,1.21s-2,.73-3,1.1l.12-.1L62.29,94.5l-2.92,5.67Z"/><path class="cls-7" d="M84.85,53A8,8,0,0,0,87,55a9.84,9.84,0,0,0,2.59,1.25,11.72,11.72,0,0,0,2.81.53,12.47,12.47,0,0,0,2.86-.24,20.83,20.83,0,0,0,5.46-1.9,19,19,0,0,0,2.5-1.47,10.17,10.17,0,0,0,2.17-1.92,9.19,9.19,0,0,1-2,2.08,19,19,0,0,1-2.47,1.6,18.57,18.57,0,0,1-2.69,1.21,17.38,17.38,0,0,1-2.84.81,12.72,12.72,0,0,1-3,.21l-.74-.07-.73-.13a6.31,6.31,0,0,1-.72-.18,5.88,5.88,0,0,1-.71-.23,9.84,9.84,0,0,1-2.6-1.38A7.55,7.55,0,0,1,84.85,53Z"/><path class="cls-7" d="M88,58.29l.31,3.12c.11,1,.22,2,.31,3.06l-.12-.12c1.82,0,3.64,0,5.46,0l5.47.08-.21.2.16-3.43.16-3.42.19.19c-1.93.08-3.87.11-5.82.16Zm0,0L93.84,58c2-.1,3.93-.23,5.91-.31h.2v.2l-.13,3.42-.14,3.43v.2h-.2L94,64.76c-1.82,0-3.65-.1-5.47-.16H88.4v-.11c-.08-1-.14-2.1-.2-3.13Z"/><path class="cls-7" d="M101.65,76.1l-4.48,4.28-4.52,4.25c-1.5,1.42-3,2.82-4.53,4.23l-4.54,4.22.06-.14-.36,6-.37,6c-.26,4-.53,8-.85,12q.22-6,.53-12l.31-6,.32-6v-.08l.06-.06,4.57-4.19c1.52-1.4,3-2.81,4.57-4.19L97,80.23Z"/><polygon class="cls-7" points="81.94 86.16 99.13 92 103.05 89.92 84.32 83.91 81.94 86.16"/><polygon class="cls-7" points="74.96 81.42 79.52 87.81 80.17 87.71 81.94 86.16 79.85 83.11 74.96 81.42"/><path class="cls-5" d="M93.33,72.84l-.5.27a3.13,3.13,0,0,1-2.38.23l-2.32-.71a2.57,2.57,0,0,0-2.26.4l-1.54,1.16a2.2,2.2,0,0,0-.73,2.58h0l-.37.33a1.15,1.15,0,0,0-.14,1.54h0a1.14,1.14,0,0,0,1.77.06l.12-.13.33.31a1.57,1.57,0,0,0,2,.12h0l.4.38a1.57,1.57,0,0,0,1.92.2L91,78.74s.37,1.49,1.54,1.29a15.47,15.47,0,0,0,3.54-1.68Z"/><path class="cls-7" d="M93.33,72.86a7,7,0,0,1-.94.49,2.9,2.9,0,0,1-1.06.21,3.24,3.24,0,0,1-1.07-.17l-1-.29-1-.3a2.63,2.63,0,0,0-1-.13,2.44,2.44,0,0,0-.95.29,7.45,7.45,0,0,0-.86.6l-.86.63a2.29,2.29,0,0,0-.71.71,2.14,2.14,0,0,0-.27,1.48,2.27,2.27,0,0,0,.06.25l0,.06v0h0c0,.14,0,0,0,.07h0l-.1.09a3.28,3.28,0,0,0-.38.36,1.08,1.08,0,0,0,0,1.4,1.11,1.11,0,0,0,.91.36,1.17,1.17,0,0,0,.84-.51l0-.06.06.05a3.15,3.15,0,0,0,.65.53,1.62,1.62,0,0,0,.78.17A1.5,1.5,0,0,0,87.2,79l0,0h.17l0,0,.08.07.16.15a2.38,2.38,0,0,0,.31.26,1.44,1.44,0,0,0,1.48.09l1.44-.91.19-.11.06.21a1.32,1.32,0,0,0,2.13.92A21.64,21.64,0,0,0,96,78.23l-.06.19C95.06,76.61,94.21,74.76,93.33,72.86Zm0,0c.93,1.77,1.91,3.6,2.86,5.47l.06.12-.11.07a20,20,0,0,1-2.74,1.46,5.63,5.63,0,0,1-.76.24,1.29,1.29,0,0,1-.86-.08,1.49,1.49,0,0,1-.62-.57,3,3,0,0,1-.34-.75l.25.1c-.5.3-1,.59-1.48.89a1.71,1.71,0,0,1-1.77-.14,2.41,2.41,0,0,1-.33-.3l-.15-.15-.08-.07,0,0h.13l0,0a1.68,1.68,0,0,1-.86.27,1.64,1.64,0,0,1-.87-.22,3.73,3.73,0,0,1-.67-.57H85a1.36,1.36,0,0,1-.94.54,1.21,1.21,0,0,1-1-.41,1.23,1.23,0,0,1-.27-1,1.16,1.16,0,0,1,.24-.5,3.41,3.41,0,0,1,.38-.38l.1-.09h0s0-.07,0,.07h0v-.05l0-.07a1.12,1.12,0,0,1-.08-.26,2.51,2.51,0,0,1-.06-.55,2.34,2.34,0,0,1,.29-1.06,2.43,2.43,0,0,1,.74-.82l.84-.65a10.7,10.7,0,0,1,.89-.63,2.65,2.65,0,0,1,1.07-.31,2.91,2.91,0,0,1,1.1.16l1,.31,1,.33a2.93,2.93,0,0,0,1,.2,3.24,3.24,0,0,0,1-.13A7.75,7.75,0,0,0,93.34,72.82Z"/><path class="cls-7" d="M83,77.28a12.79,12.79,0,0,1,1.66-1.38,13,13,0,0,1,1.86-1.13A14.49,14.49,0,0,1,83,77.28Z"/><path class="cls-7" d="M84.82,78.65a10.93,10.93,0,0,1,1.5-1.3,10.3,10.3,0,0,1,1.69-1,10.84,10.84,0,0,1-1.5,1.3A10.3,10.3,0,0,1,84.82,78.65Z"/><path class="cls-7" d="M87.16,79.09a6.34,6.34,0,0,1,1.14-1,6.27,6.27,0,0,1,1.32-.73,6.28,6.28,0,0,1-1.13,1A6.35,6.35,0,0,1,87.16,79.09Z"/><path class="cls-7" d="M95.15,70.45c.4.61.76,1.23,1.12,1.86s.7,1.27,1,1.9.66,1.29,1,1.94.62,1.31.9,2c-.4-.61-.76-1.23-1.12-1.86s-.7-1.27-1-1.9-.67-1.29-1-1.94S95.43,71.12,95.15,70.45Z"/><path class="cls-7" d="M103.84,61.93s6.7-.84,11.17,1.83l.32-2.51s-4.26-3.13-11.19-1.63Z"/><polygon class="cls-7" points="79.85 58.52 86.22 66.54 86.57 65.9 86.13 62.53 81.1 56.17 79.85 58.52"/><path class="cls-6" d="M129,57l-.28-1.24c2.59-.57,5.07-1.94,5.78-3.17a1.1,1.1,0,0,0,.15-.94.92.92,0,0,0-.51-.63,3.29,3.29,0,0,0-2.18.28l-.54-1.15a4.46,4.46,0,0,1,3.22-.29,2.2,2.2,0,0,1,1.22,1.4,2.42,2.42,0,0,1-.26,2C134.53,55,131.43,56.42,129,57Z"/><path class="cls-4" d="M127.87,59c-.55,1-3.33.4-6.2-1.26s-4.75-3.78-4.19-4.74l5.65-9.54,10.4,6Z"/><ellipse class="cls-7" cx="128.33" cy="46.42" rx="2.01" ry="6" transform="translate(23.97 134.34) rotate(-60)"/><path class="cls-5" d="M123.34,44.72a11.48,11.48,0,0,0,4,3.44,11.51,11.51,0,0,0,4.94,1.72,14,14,0,0,0-8.92-5.16Z"/><path class="cls-5" d="M137.91,44.72s-1.3-.74-3.77.68-6.34.77-6.34.77l.69,2,3.5,1.26a2.07,2.07,0,0,1,0-1.61,3.58,3.58,0,0,1,3.18-2.12C136.61,45.75,139.55,46.16,137.91,44.72Z"/><path class="cls-5" d="M131.67,47.16a4.31,4.31,0,0,1,3.18-.7c1.76.35,2.12,2.47,1.06,2.47s-.88-2.12-2.38-1.77a1.8,1.8,0,0,0-1.27,2.72l-1.3-1Z"/><path class="cls-5" d="M138.49,47a.78.78,0,0,1,.95.87c0,1.06.71,1.41,1.06,1.06C141,48.43,140.72,46.14,138.49,47Z"/><ellipse class="cls-5" cx="141.91" cy="49.81" rx="0.71" ry="0.53"/><circle class="cls-2" cx="71.92" cy="71.06" r="2.35"/><path class="cls-9" d="M71.19,71.86h0a.92.92,0,0,0,.16.27.41.41,0,0,0,.47.09A.32.32,0,0,0,72,72a.57.57,0,0,0,0-.26c0-.27-.09-.54-.13-.8l-.12-.74-.09-.57s0,0,0,0l.49-.08s0,0,0,0l.12.76c0,.18.06.35.08.53l.12.7a2,2,0,0,1,0,.35.73.73,0,0,1-.15.35.6.6,0,0,1-.32.22.8.8,0,0,1-.53,0,.73.73,0,0,1-.37-.3,1.2,1.2,0,0,1-.13-.33,4.26,4.26,0,0,1-.1-.49s0,0,0-.05h0l.45-.08s0,0,0,0,0,.31.07.46a.16.16,0,0,1-.17.19.44.44,0,0,1-.15,0Z"/><circle class="cls-5" cx="28.72" cy="23.13" r="12.24"/><path class="cls-10" d="M34.38,12.28A12.23,12.23,0,0,1,19.91,31.61,12.24,12.24,0,1,0,34.38,12.28Z"/><circle class="cls-10" cx="25.17" cy="14.05" r="0.79"/><circle class="cls-10" cx="21.22" cy="21.95" r="0.79"/><circle class="cls-10" cx="25.17" cy="30.64" r="0.79"/><circle class="cls-10" cx="34.65" cy="14.84" r="0.79"/><circle class="cls-10" cx="29.91" cy="17.21" r="1.58"/><circle class="cls-10" cx="32.28" cy="25.9" r="1.58"/></g></g></svg>